<?xml version="1.0" standalone="no"?>
<!DOCTYPE svg PUBLIC "-//W3C//DTD SVG 20010904//EN"
 "http://www.w3.org/TR/2001/REC-SVG-20010904/DTD/svg10.dtd">
<svg version="1.0" xmlns="http://www.w3.org/2000/svg"
 width="1250.000000pt" height="1250.000000pt" viewBox="0 0 1250.000000 1250.000000"
 preserveAspectRatio="xMidYMid meet">

<g transform="translate(0.000000,1250.000000) scale(0.100000,-0.100000)"
fill="#000000" stroke="none">
<path d="M5315 8696 c-16 -8 -42 -26 -57 -42 -76 -81 -62 -222 28 -291 52 -39
145 -45 204 -12 73 41 112 136 90 218 -12 46 -59 105 -101 127 -35 18 -124 18
-164 0z"/>
<path d="M8685 8698 c-32 -17 -76 -61 -91 -90 -20 -39 -18 -136 5 -178 32 -60
83 -93 151 -98 73 -5 109 8 154 59 89 97 59 246 -61 308 -28 14 -132 14 -158
-1z"/>
<path d="M9905 8696 c-16 -8 -42 -26 -57 -42 -76 -81 -62 -222 28 -291 52 -39
145 -45 204 -12 73 41 112 136 90 218 -12 46 -59 105 -101 127 -35 18 -124 18
-164 0z"/>
<path d="M3810 7855 l0 -825 150 0 150 0 0 60 c0 33 3 60 6 60 3 0 25 -16 47
-36 92 -79 232 -122 360 -111 420 36 655 528 450 947 -66 136 -215 257 -353
289 -76 18 -210 13 -282 -9 -64 -19 -170 -81 -197 -113 -7 -9 -17 -17 -22 -17
-5 0 -9 130 -9 290 l0 290 -150 0 -150 0 0 -825z m746 96 c67 -30 127 -91 160
-165 24 -52 28 -74 29 -151 0 -121 -21 -178 -92 -255 -66 -72 -131 -100 -228
-100 -130 0 -234 70 -292 195 -24 52 -27 72 -27 155 0 83 3 103 27 155 61 131
173 200 313 191 33 -2 82 -13 110 -25z"/>
<path d="M9220 8440 l0 -220 -75 0 -75 0 0 -125 0 -125 75 0 75 0 0 -470 0
-470 150 0 150 0 2 468 3 467 88 3 87 3 0 124 0 124 -87 3 -88 3 -3 218 -2
217 -150 0 -150 0 0 -220z"/>
<path d="M2420 8083 c0 -630 6 -709 61 -821 99 -202 366 -312 624 -257 94 20
165 56 235 121 70 66 115 133 143 217 21 60 21 82 25 680 l3 617 -150 0 -151
0 0 -512 c0 -563 -6 -666 -42 -730 -47 -85 -175 -129 -288 -98 -55 15 -123 79
-141 135 -10 30 -14 179 -16 623 l-4 582 -150 0 -149 0 0 -557z"/>
<path d="M6171 8234 c-175 -47 -333 -216 -387 -414 -25 -90 -25 -290 0 -380
108 -395 555 -567 856 -329 l50 39 2 -277 3 -278 148 -3 147 -3 0 816 0 815
-150 0 -150 0 0 -62 0 -62 -27 26 c-47 43 -125 88 -192 108 -76 24 -219 26
-300 4z m355 -289 c165 -81 230 -315 139 -495 -32 -63 -113 -134 -177 -156
-67 -22 -187 -16 -243 14 -56 29 -130 108 -157 167 -32 71 -32 237 0 307 25
55 93 133 136 155 96 50 209 53 302 8z"/>
<path d="M5240 7625 l0 -595 150 0 150 0 0 595 0 595 -150 0 -150 0 0 -595z"/>
<path d="M7280 7890 c0 -453 14 -562 91 -681 66 -103 161 -166 292 -193 302
-63 566 75 632 329 23 89 35 296 35 603 l0 272 -149 0 -149 0 -5 -377 c-3
-250 -8 -391 -16 -416 -26 -83 -114 -146 -202 -147 -94 0 -156 37 -197 120
l-27 55 -3 383 -3 382 -150 0 -149 0 0 -330z"/>
<path d="M8610 7625 l0 -595 150 0 150 0 0 595 0 595 -150 0 -150 0 0 -595z"/>
<path d="M9830 7625 l0 -595 150 0 150 0 0 595 0 595 -150 0 -150 0 0 -595z"/>
<path d="M3691 6254 c-67 -56 -24 -174 64 -174 53 0 95 44 95 100 0 87 -92
130 -159 74z"/>
<path d="M4043 6265 c-50 -22 -67 -57 -73 -154 -5 -85 -5 -86 -32 -89 -27 -3
-28 -5 -28 -68 l0 -64 30 0 30 0 0 -245 0 -245 80 0 80 0 0 245 0 245 45 0 45
0 0 65 0 65 -45 0 -45 0 0 55 c0 62 19 81 71 70 l29 -7 0 61 0 60 -37 10 c-52
15 -112 13 -150 -4z"/>
<path d="M4341 6266 c-87 -48 -50 -186 49 -186 51 0 100 49 100 99 0 75 -83
124 -149 87z"/>
<path d="M3275 6028 c-16 -6 -46 -22 -65 -35 l-35 -23 -3 25 c-3 24 -5 25 -83
25 l-79 0 0 -310 0 -310 80 0 80 0 0 188 c0 175 2 191 23 232 42 84 132 102
181 37 20 -26 21 -43 24 -243 l3 -214 80 0 79 0 0 226 c0 137 -5 243 -12 271
-27 108 -160 171 -273 131z"/>
<path d="M5139 6026 c-89 -31 -139 -80 -181 -172 -33 -74 -32 -208 4 -285 32
-70 86 -125 155 -156 46 -21 66 -25 127 -21 61 3 82 9 125 35 l51 32 0 -29 0
-30 80 0 80 0 0 310 0 310 -80 0 -80 0 0 -31 0 -30 -35 27 c-68 52 -168 68
-246 40z m191 -148 c180 -91 91 -380 -105 -344 -103 20 -164 157 -116 261 43
94 133 127 221 83z"/>
<path d="M5959 6027 c-151 -43 -243 -163 -243 -318 0 -63 5 -86 29 -134 34
-71 85 -123 150 -155 66 -31 207 -40 286 -16 57 16 152 81 157 106 1 9 -23 31
-58 54 l-61 39 -22 -21 c-131 -123 -355 -11 -323 162 26 139 193 197 318 112
l36 -24 61 35 c52 29 60 37 52 52 -14 26 -74 69 -128 93 -58 26 -189 33 -254
15z"/>
<path d="M6704 6031 c-98 -25 -183 -92 -225 -177 -20 -41 -24 -64 -24 -144 0
-110 17 -155 87 -227 67 -68 123 -88 253 -88 91 0 118 4 156 21 50 24 119 80
119 98 -1 6 -25 28 -55 49 l-55 38 -33 -24 c-102 -77 -253 -52 -302 50 -23 46
-24 127 -2 168 35 69 90 99 179 99 60 0 73 -4 112 -31 l43 -31 54 30 c30 16
58 33 63 38 16 16 -42 68 -112 102 -53 26 -78 32 -145 34 -45 2 -96 -1 -113
-5z"/>
<path d="M7415 6031 c-86 -21 -168 -92 -209 -180 -17 -37 -21 -65 -21 -141 0
-110 21 -166 88 -233 65 -65 115 -82 237 -82 85 0 113 4 150 21 48 22 120 84
120 103 0 6 -28 24 -62 39 l-63 29 -31 -24 c-58 -44 -167 -47 -222 -6 -31 23
-58 60 -67 91 l-6 22 250 0 251 0 0 38 c0 58 -27 150 -58 195 -72 108 -221
161 -357 128z m160 -140 c39 -17 95 -72 95 -92 0 -5 -71 -9 -165 -9 -105 0
-165 4 -165 10 0 21 67 81 105 95 54 19 82 18 130 -4z"/>
<path d="M8025 6021 c-84 -38 -127 -119 -105 -201 15 -57 59 -102 142 -145 88
-46 118 -71 118 -101 0 -53 -77 -58 -149 -10 l-50 34 -46 -53 -45 -53 31 -31
c49 -49 86 -64 174 -69 73 -4 85 -1 134 25 94 49 127 153 80 249 -21 44 -57
72 -176 134 -72 37 -84 57 -52 83 27 22 59 16 109 -18 l35 -25 46 46 c26 26
45 53 42 60 -8 21 -69 64 -114 79 -56 20 -125 18 -174 -4z"/>
<path d="M8578 6031 c-47 -15 -85 -49 -107 -94 -52 -108 -6 -192 152 -278 90
-48 111 -77 81 -110 -27 -30 -93 -21 -144 20 l-38 31 -46 -51 c-25 -28 -46
-55 -46 -59 0 -14 63 -62 105 -81 51 -23 161 -25 213 -4 71 30 122 103 122
175 0 43 -29 107 -62 138 -14 12 -65 44 -114 70 -65 35 -90 53 -92 69 -7 50
72 53 129 6 l30 -26 45 44 c24 24 44 48 44 54 0 16 -49 60 -90 80 -39 20 -142
29 -182 16z"/>
<path d="M2323 5813 c3 -115 11 -226 17 -247 18 -60 59 -115 108 -143 54 -32
175 -43 247 -23 58 16 117 68 147 128 22 44 23 60 26 270 l4 222 -76 0 -76 0
-1 -167 c0 -93 -4 -190 -8 -216 -11 -64 -44 -98 -103 -104 -37 -4 -49 -1 -76
22 -17 14 -36 43 -42 63 -5 20 -10 119 -10 220 l0 182 -81 0 -82 0 6 -207z"/>
<path d="M3680 5710 l0 -310 75 0 75 0 0 310 0 310 -75 0 -75 0 0 -310z"/>
<path d="M4310 5710 l0 -310 80 0 80 0 0 310 0 310 -80 0 -80 0 0 -310z"/>
<path d="M8840 4515 l0 -115 -40 0 -40 0 0 -70 0 -70 40 0 40 0 0 -245 0 -246
78 3 77 3 3 243 2 242 45 0 45 0 0 70 0 70 -45 0 -44 0 -3 113 -3 112 -77 3
-78 3 0 -116z"/>
<path d="M2446 4215 c-87 -223 -161 -415 -163 -426 -5 -19 -1 -20 77 -17 l83
3 32 85 32 85 174 0 174 0 34 -87 34 -88 84 0 c45 0 83 1 83 3 0 2 -74 192
-164 423 l-163 419 -80 3 -79 3 -158 -406z m293 32 c28 -70 51 -132 51 -137 0
-6 -45 -10 -110 -10 -60 0 -110 2 -110 5 0 6 100 257 107 268 7 12 7 13 62
-126z"/>
<path d="M3220 4197 l0 -427 80 0 80 0 0 179 0 178 84 6 c93 7 135 21 184 62
52 44 72 93 72 177 0 89 -22 142 -75 185 -51 42 -104 54 -277 60 l-148 6 0
-426z m326 230 c31 -37 31 -81 -1 -112 -21 -22 -33 -25 -95 -25 l-70 0 0 86 0
86 71 -4 c63 -3 74 -7 95 -31z"/>
<path d="M3845 4607 c-3 -6 -4 -197 -3 -422 l3 -410 78 -3 77 -3 0 426 0 425
-75 0 c-51 0 -77 -4 -80 -13z"/>
<path d="M4733 4395 c-23 -7 -62 -24 -85 -38 -219 -129 -201 -457 32 -566 48
-23 68 -26 160 -26 92 0 112 3 160 26 53 25 120 78 120 96 0 4 -27 25 -60 47
l-60 38 -30 -26 c-104 -87 -273 -43 -310 81 -21 68 -6 130 43 179 77 77 184
84 272 19 l30 -22 63 35 c60 33 62 35 49 56 -21 32 -103 84 -160 101 -61 18
-167 18 -224 0z"/>
<path d="M5449 4397 c-84 -32 -151 -90 -191 -167 -31 -60 -37 -186 -13 -259
21 -64 92 -144 159 -179 45 -24 62 -27 146 -27 83 0 101 3 145 27 164 86 225
277 144 444 -25 53 -97 120 -157 147 -59 26 -181 33 -233 14z m178 -154 c103
-48 121 -207 34 -294 -122 -122 -318 8 -271 181 12 44 61 107 94 120 35 14
106 11 143 -7z"/>
<path d="M6242 4395 c-18 -8 -46 -24 -62 -35 l-29 -20 -3 27 c-3 28 -4 28 -80
31 l-78 3 0 -316 0 -316 78 3 77 3 5 202 c6 224 9 236 80 277 41 25 94 13 124
-27 20 -26 21 -44 24 -243 l3 -214 80 0 80 0 -3 248 c-3 228 -5 250 -24 287
-33 64 -89 97 -171 102 -47 2 -78 -1 -101 -12z"/>
<path d="M6935 4398 c-16 -6 -46 -22 -65 -35 l-35 -23 -3 30 -3 30 -80 0 -79
0 0 -315 0 -315 79 0 79 0 4 198 c3 219 10 245 71 282 45 28 81 25 119 -9 l33
-29 5 -219 5 -218 78 -3 77 -3 0 243 c0 233 -1 246 -22 288 -34 67 -93 103
-171 107 -34 1 -75 -3 -92 -9z"/>
<path d="M7535 4393 c-89 -32 -159 -102 -191 -190 -7 -21 -13 -77 -14 -124 0
-76 3 -93 30 -147 35 -68 82 -115 149 -146 38 -17 65 -21 151 -21 94 1 110 3
155 27 52 27 123 93 113 104 -4 3 -33 18 -65 33 l-58 28 -39 -26 c-55 -36
-150 -42 -203 -11 -43 24 -69 55 -79 94 l-6 26 248 2 249 3 -4 60 c-7 126 -75
231 -179 278 -66 29 -190 34 -257 10z m191 -132 c22 -10 50 -31 62 -46 42 -53
37 -55 -138 -55 -177 0 -180 2 -132 58 48 58 135 76 208 43z"/>
<path d="M8298 4397 c-70 -20 -150 -78 -186 -133 -40 -64 -56 -129 -50 -212 8
-113 73 -208 176 -259 52 -25 67 -28 167 -28 99 0 115 3 165 27 30 15 70 43
89 62 l33 34 -61 41 -61 42 -33 -24 c-105 -79 -246 -53 -303 55 -18 34 -18
119 0 161 44 107 212 141 303 63 l28 -24 45 23 c25 13 54 30 65 39 20 14 19
15 -15 51 -56 58 -130 87 -230 91 -52 3 -104 -1 -132 -9z"/>
<path d="M9354 4396 c-134 -43 -217 -163 -218 -311 -1 -72 3 -88 32 -148 60
-122 169 -184 308 -175 335 22 422 473 119 617 -61 29 -179 38 -241 17z m187
-159 c56 -37 79 -81 79 -149 0 -98 -49 -165 -133 -184 -69 -15 -154 33 -183
103 -33 77 -2 186 65 230 47 32 125 32 172 0z"/>
<path d="M10065 4394 c-16 -8 -40 -27 -52 -42 l-22 -27 -1 38 0 37 -65 0 -65
0 0 -315 0 -315 75 0 75 0 0 153 c1 274 20 341 96 343 39 0 39 1 62 64 18 50
20 65 10 72 -21 13 -81 9 -113 -8z"/>
</g>
</svg>
